<svg width="88" height="88" viewBox="0 0 88 88" fill="none" xmlns="http://www.w3.org/2000/svg">
<circle opacity="0.1" cx="44" cy="44" r="44" fill="#8FA632"/>
<path d="M25.9426 28.136C25.52 27.2625 25.8854 26.2118 26.759 25.7893C27.0441 25.6514 27.3477 25.5988 27.6426 25.619C27.9207 25.0007 28.409 24.473 29.0669 24.1546C30.5541 23.4351 32.3431 24.0575 33.0627 25.5447C33.2366 25.9042 33.3315 26.2813 33.3552 26.6566C34.0191 26.6345 34.6652 26.9961 34.9732 27.6325C35.3898 28.4936 35.0296 29.5292 34.1684 29.9459C33.3864 30.3242 32.4619 30.0602 31.9864 29.3638C31.8865 29.4279 31.7822 29.4873 31.6727 29.5404C30.4969 30.1092 29.133 29.8388 28.2575 28.9658C27.3905 29.3647 26.3602 28.9989 25.9426 28.136Z" fill="url(#paint0_linear_0_1)"/>
<path d="M26.3844 24.9367C27.1953 24.9367 27.8527 24.2793 27.8527 23.4684C27.8527 22.6574 27.1953 22 26.3844 22C25.5734 22 24.916 22.6574 24.916 23.4684C24.916 24.2793 25.5734 24.9367 26.3844 24.9367Z" fill="url(#paint1_linear_0_1)"/>
<path d="M35.1075 36.7783H31.566C31.0649 36.7783 30.6586 36.372 30.6586 35.8708V30.222C30.6586 29.7208 31.0649 29.3146 31.566 29.3146H35.1075C35.6087 29.3146 36.0149 29.7208 36.0149 30.222V35.8708C36.015 36.372 35.6088 36.7783 35.1075 36.7783Z" fill="url(#paint2_linear_0_1)"/>
<path d="M33.9855 52.885H23.4101V66.4568H33.9855V52.885Z" fill="url(#paint3_linear_0_1)"/>
<path d="M34.4261 55.7929H23.4338C22.9834 55.7929 22.6609 55.358 22.7916 54.9269L23.8824 51.3338C23.9683 51.051 24.229 50.8578 24.5246 50.8578H34.4262V55.7929H34.4261Z" fill="url(#paint4_linear_0_1)"/>
<path d="M65.5355 52.885H54.9601V66.4568H65.5355V52.885Z" fill="url(#paint5_linear_0_1)"/>
<path d="M65.5354 62.901L58.4301 55.7955H54.9601V66.4565H65.5354V62.901Z" fill="url(#paint6_linear_0_1)"/>
<path d="M54.5194 55.7929H65.5117C65.9621 55.7929 66.2846 55.358 66.1539 54.9269L65.0631 51.3338C64.9772 51.051 64.7165 50.8578 64.4209 50.8578H54.5194V55.7929Z" fill="url(#paint7_linear_0_1)"/>
<path d="M58.4358 38.3768V66.4562H30.5132V38.3768L44.4727 24.6904L58.4358 38.3768Z" fill="url(#paint8_linear_0_1)"/>
<path d="M30.5132 38.3768V39.9855L56.9839 66.4562H58.4358V38.3768L44.4727 24.6904L30.5132 38.3768Z" fill="url(#paint9_linear_0_1)"/>
<path d="M58.4358 46.863V66.4565H49.6203L30.5132 47.3494V46.863H58.4358Z" fill="url(#paint10_linear_0_1)"/>
<path d="M54.1214 66.4564H40.4653L32.9585 58.9497C32.628 58.7354 32.4081 58.3636 32.4081 57.9419V51.9001C32.4081 51.2382 32.947 50.6993 33.6089 50.6993H37.9647C38.3874 50.6993 38.7592 50.9193 38.9734 51.2497L38.9408 51.2756L54.1214 66.4564Z" fill="url(#paint11_linear_0_1)"/>
<path d="M37.9647 58.4388H33.6093C33.3346 58.4388 33.112 58.2162 33.112 57.9415V51.9006C33.112 51.6259 33.3347 51.4033 33.6093 51.4033H37.9647C38.2394 51.4033 38.462 51.626 38.462 51.9006V57.9415C38.4621 58.2162 38.2394 58.4388 37.9647 58.4388Z" fill="#503837"/>
<path d="M37.9647 59.1428H33.6093C32.947 59.1428 32.4081 58.6039 32.4081 57.9416V51.9007C32.4081 51.2384 32.947 50.6995 33.6093 50.6995H37.9647C38.627 50.6995 39.1659 51.2384 39.1659 51.9007V57.9416C39.166 58.6039 38.6271 59.1428 37.9647 59.1428ZM33.816 57.7348H37.7581V52.1073H33.816V57.7348Z" fill="white"/>
<path d="M58.4368 53.1914V66.4564H58.0083L50.5015 58.9497C50.17 58.7354 49.95 58.3636 49.95 57.9419V51.9001C49.95 51.2382 50.489 50.6993 51.1518 50.6993H55.5066C55.9293 50.6993 56.3011 50.9193 56.5153 51.2497L56.5326 51.2633L56.521 51.2758L58.4368 53.1914Z" fill="url(#paint12_linear_0_1)"/>
<path d="M55.507 58.4388H51.1516C50.8769 58.4388 50.6543 58.2162 50.6543 57.9415V51.9006C50.6543 51.6259 50.8769 51.4033 51.1516 51.4033H55.507C55.7817 51.4033 56.0043 51.626 56.0043 51.9006V57.9415C56.0044 58.2162 55.7817 58.4388 55.507 58.4388Z" fill="#503837"/>
<path d="M55.507 59.1428H51.1516C50.4893 59.1428 49.9504 58.6039 49.9504 57.9416V51.9007C49.9504 51.2384 50.4893 50.6995 51.1516 50.6995H55.507C56.1694 50.6995 56.7083 51.2384 56.7083 51.9007V57.9416C56.7083 58.6039 56.1694 59.1428 55.507 59.1428ZM51.3582 57.7348H55.3002V52.1073H51.3582V57.7348Z" fill="white"/>
<path d="M41.5651 66.4561V51.2019C41.5651 50.529 42.1105 49.9836 42.7833 49.9836H46.1662C46.839 49.9836 47.3845 50.529 47.3845 51.2019V66.4561H41.5651Z" fill="#816965"/>
<path d="M48.1049 66.4561H46.6638V51.6173C46.6638 51.1152 46.253 50.7042 45.7508 50.7042H43.1986C42.6943 50.7042 42.2855 51.113 42.2855 51.6173V66.4561H40.8445V50.6643C40.8445 49.8905 41.4718 49.2632 42.2457 49.2632H46.7037C47.4775 49.2632 48.1048 49.8905 48.1048 50.6643V66.4561H48.1049Z" fill="#503837"/>
<path d="M43.4425 56.3664C43.8054 56.3664 44.0995 56.0723 44.0995 55.7095C44.0995 55.3466 43.8054 55.0525 43.4425 55.0525C43.0797 55.0525 42.7856 55.3466 42.7856 55.7095C42.7856 56.0723 43.0797 56.3664 43.4425 56.3664Z" fill="white"/>
<path d="M58.4368 62.6117H30.5124V66.4559H58.4368V62.6117Z" fill="#654E48"/>
<path d="M30.2066 64.9539C30.2066 65.4844 30.1063 65.9907 29.923 66.456H22.2836C22.1003 65.9907 22 65.4844 22 64.9539C22 64.4373 22.0952 63.9434 22.2697 63.4884C22.8595 61.9453 24.3536 60.8506 26.1034 60.8506C27.8532 60.8506 29.3472 61.9453 29.9371 63.4884C30.1114 63.9435 30.2066 64.4374 30.2066 64.9539Z" fill="url(#paint13_linear_0_1)"/>
<path d="M32.8526 65.3665C32.8526 65.7513 32.7798 66.1185 32.6469 66.4561H27.1052C26.9722 66.1186 26.8995 65.7513 26.8995 65.3665C26.8995 64.9917 26.9686 64.6335 27.0951 64.3034C27.523 63.184 28.6068 62.3899 29.8761 62.3899C31.1455 62.3899 32.2293 63.184 32.6572 64.3034C32.7835 64.6334 32.8526 64.9917 32.8526 65.3665Z" fill="url(#paint14_linear_0_1)"/>
<path d="M66.9455 64.7051C66.9455 65.3235 66.8285 65.9137 66.6149 66.4561H57.7097C57.4962 65.9138 57.3791 65.3235 57.3791 64.7051C57.3791 64.1029 57.4902 63.5273 57.6935 62.9968C58.3811 61.198 60.1226 59.9219 62.1623 59.9219C64.202 59.9219 65.9435 61.198 66.6311 62.9968C66.8344 63.5273 66.9455 64.1029 66.9455 64.7051Z" fill="url(#paint15_linear_0_1)"/>
<path d="M58.4358 42.3937V57.2759L40.4744 39.3136C40.1218 39.1013 39.8848 38.7161 39.8848 38.2755V34.901C39.8848 32.3717 41.9435 30.314 44.4728 30.314C45.8423 30.314 47.0734 30.9185 47.915 31.8729L58.4358 42.3937Z" fill="url(#paint16_linear_0_1)"/>
<path d="M56.3894 40.9458H32.9179C32.3582 40.9458 31.9029 41.4011 31.9029 41.9608V46.467H32.6079V41.9608C32.6079 41.7898 32.747 41.6508 32.9179 41.6508H34.3219V46.4669H35.0269V41.6508H37.1213V46.4669H37.8263V41.6508H39.9208V46.4669H40.6258V41.6508H42.7202V46.4669H43.4252V41.6508H45.5197V46.4669H46.2247V41.6508H48.3192V46.4669H49.0242V41.6508H51.1186V46.4669H51.8236V41.6508H53.9181V46.4669H54.6231V41.6508H56.3891C56.56 41.6508 56.6991 41.7898 56.6991 41.9608V46.467H57.4041V41.9608C57.4044 41.4011 56.9491 40.9458 56.3894 40.9458Z" fill="#654E48"/>
<path d="M59.0145 45.7355V47.9959C59.0145 48.3318 58.7422 48.6042 58.4063 48.6042H30.5392C30.2032 48.6042 29.9309 48.3318 29.9309 47.9959V45.7355C29.9309 45.3995 30.2032 45.1272 30.5392 45.1272H58.4063C58.7422 45.1272 59.0145 45.3995 59.0145 45.7355Z" fill="url(#paint17_linear_0_1)"/>
<path d="M63.435 40.8248L45.4056 22.7893C44.8917 22.2755 44.0584 22.2755 43.5445 22.7893L25.5105 40.8233C25.1743 41.1595 25.1743 41.7046 25.5105 42.0408L26.279 42.8093C26.6153 43.1455 27.1603 43.1455 27.4965 42.8093L44.2299 26.0759C44.3652 25.9406 44.5846 25.9406 44.7199 26.0759L61.4489 42.8107C61.7851 43.1469 62.3302 43.1469 62.6664 42.8107L63.4349 42.0422C63.7712 41.7061 63.7712 41.161 63.435 40.8248Z" fill="url(#paint18_linear_0_1)"/>
<path d="M45.4055 22.7893C45.1486 22.5324 44.8119 22.4039 44.475 22.4039V25.9746C44.5637 25.9746 44.6524 26.0084 44.72 26.076L61.449 42.8109C61.7852 43.1471 62.3303 43.1471 62.6665 42.8109L63.435 42.0423C63.7712 41.7061 63.7712 41.161 63.435 40.8248L45.4055 22.7893Z" fill="url(#paint19_linear_0_1)"/>
<path d="M47.8466 38.7568H41.099C40.833 38.7568 40.6174 38.5411 40.6174 38.2752V34.9013C40.6174 32.772 42.3436 31.0458 44.4729 31.0458C46.6023 31.0458 48.3285 32.772 48.3285 34.9013V38.2752C48.3283 38.5411 48.1126 38.7568 47.8466 38.7568Z" fill="#654E48"/>
<path d="M44.4728 30.3137C41.9432 30.3137 39.8853 32.3717 39.8853 34.9012V38.275C39.8853 38.9443 40.4297 39.4887 41.099 39.4887H47.8466C48.5159 39.4887 49.0604 38.9443 49.0604 38.275V34.9012C49.0603 32.3716 47.0024 30.3137 44.4728 30.3137ZM47.5709 34.5109H45.2049V31.8653C46.4516 32.1661 47.4087 33.2163 47.5709 34.5109ZM43.7406 31.8653V34.5109H41.3746C41.5368 33.2163 42.4938 32.1661 43.7406 31.8653ZM41.3493 35.975H43.7406V38.0248H41.3493V35.975ZM45.2049 38.0248V35.975H47.5962V38.0248H45.2049Z" fill="white"/>
<defs>
<linearGradient id="paint0_linear_0_1" x1="24.2445" y1="24.8202" x2="41.5359" y2="30.8359" gradientUnits="userSpaceOnUse">
<stop stop-color="#E2EDF2"/>
<stop offset="1" stop-color="#9FC7E2"/>
</linearGradient>
<linearGradient id="paint1_linear_0_1" x1="25.9081" y1="23.3036" x2="28.454" y2="24.1896" gradientUnits="userSpaceOnUse">
<stop stop-color="#E2EDF2"/>
<stop offset="1" stop-color="#9FC7E2"/>
</linearGradient>
<linearGradient id="paint2_linear_0_1" x1="31.9019" y1="31.6132" x2="33.6786" y2="33.389" gradientUnits="userSpaceOnUse">
<stop stop-color="#816965"/>
<stop offset="1" stop-color="#654E48"/>
</linearGradient>
<linearGradient id="paint3_linear_0_1" x1="28.6976" y1="54.6047" x2="28.6976" y2="66.6569" gradientUnits="userSpaceOnUse">
<stop stop-color="#FFE7A5"/>
<stop offset="0.966" stop-color="#FFBF5C"/>
</linearGradient>
<linearGradient id="paint4_linear_0_1" x1="28.5941" y1="51.4831" x2="28.5941" y2="55.8665" gradientUnits="userSpaceOnUse">
<stop stop-color="#FF5D00"/>
<stop offset="1" stop-color="#D54003"/>
</linearGradient>
<linearGradient id="paint5_linear_0_1" x1="60.2469" y1="54.6047" x2="60.2469" y2="66.6569" gradientUnits="userSpaceOnUse">
<stop stop-color="#FFE7A5"/>
<stop offset="0.966" stop-color="#FFBF5C"/>
</linearGradient>
<linearGradient id="paint6_linear_0_1" x1="60.0001" y1="64.0721" x2="49.0381" y2="54.3033" gradientUnits="userSpaceOnUse">
<stop stop-color="#FF5D00" stop-opacity="0"/>
<stop offset="1" stop-color="#D54003"/>
</linearGradient>
<linearGradient id="paint7_linear_0_1" x1="60.3505" y1="51.4831" x2="60.3505" y2="55.8665" gradientUnits="userSpaceOnUse">
<stop stop-color="#FF5D00"/>
<stop offset="1" stop-color="#D54003"/>
</linearGradient>
<linearGradient id="paint8_linear_0_1" x1="44.474" y1="45.8633" x2="44.474" y2="75.4288" gradientUnits="userSpaceOnUse">
<stop stop-color="#FFE7A5"/>
<stop offset="0.966" stop-color="#FFBF5C"/>
<stop offset="1" stop-color="#DB9E36"/>
</linearGradient>
<linearGradient id="paint9_linear_0_1" x1="41.4565" y1="36.1642" x2="33.3735" y2="28.0812" gradientUnits="userSpaceOnUse">
<stop stop-color="#FF5D00" stop-opacity="0"/>
<stop offset="1" stop-color="#D54003"/>
</linearGradient>
<linearGradient id="paint10_linear_0_1" x1="45.5251" y1="53.6309" x2="42.3623" y2="33.9989" gradientUnits="userSpaceOnUse">
<stop stop-color="#FF5D00" stop-opacity="0"/>
<stop offset="1" stop-color="#D54003"/>
</linearGradient>
<linearGradient id="paint11_linear_0_1" x1="41.2266" y1="60.361" x2="28.6298" y2="47.7641" gradientUnits="userSpaceOnUse">
<stop stop-color="#FF5D00" stop-opacity="0"/>
<stop offset="1" stop-color="#D54003"/>
</linearGradient>
<linearGradient id="paint12_linear_0_1" x1="56.6992" y1="58.2916" x2="48.6338" y2="50.2262" gradientUnits="userSpaceOnUse">
<stop stop-color="#FF5D00" stop-opacity="0"/>
<stop offset="1" stop-color="#D54003"/>
</linearGradient>
<linearGradient id="paint13_linear_0_1" x1="23.7892" y1="62.3995" x2="28.8526" y2="67.4623" gradientUnits="userSpaceOnUse">
<stop stop-color="#9EB644"/>
<stop offset="1" stop-color="#738611"/>
</linearGradient>
<linearGradient id="paint14_linear_0_1" x1="28.1972" y1="63.5131" x2="31.8703" y2="67.1863" gradientUnits="userSpaceOnUse">
<stop stop-color="#9EB644"/>
<stop offset="1" stop-color="#738611"/>
</linearGradient>
<linearGradient id="paint15_linear_0_1" x1="59.4642" y1="61.7271" x2="65.3661" y2="67.6298" gradientUnits="userSpaceOnUse">
<stop stop-color="#9EB644"/>
<stop offset="1" stop-color="#738611"/>
</linearGradient>
<linearGradient id="paint16_linear_0_1" x1="50.8878" y1="42.3066" x2="37.9746" y2="29.3934" gradientUnits="userSpaceOnUse">
<stop stop-color="#FF5D00" stop-opacity="0"/>
<stop offset="1" stop-color="#D54003"/>
</linearGradient>
<linearGradient id="paint17_linear_0_1" x1="44.4723" y1="45.4976" x2="44.4723" y2="50.1102" gradientUnits="userSpaceOnUse">
<stop stop-color="#FF5D00"/>
<stop offset="1" stop-color="#D54003"/>
</linearGradient>
<linearGradient id="paint18_linear_0_1" x1="44.4723" y1="34.6034" x2="44.4723" y2="50.2626" gradientUnits="userSpaceOnUse">
<stop stop-color="#FF5D00"/>
<stop offset="1" stop-color="#D54003"/>
</linearGradient>
<linearGradient id="paint19_linear_0_1" x1="57.9408" y1="37.3836" x2="48.476" y2="27.919" gradientUnits="userSpaceOnUse">
<stop stop-color="#FF5D00" stop-opacity="0"/>
<stop offset="1" stop-color="#D54003"/>
</linearGradient>
</defs>
</svg>
