<svg width="88" height="88" viewBox="0 0 88 88" fill="none" xmlns="http://www.w3.org/2000/svg">
<circle opacity="0.1" cx="44" cy="44" r="44" fill="#DC780B"/>
<path d="M44.2825 18.0021V69.9979C58.5119 69.8472 70 58.2649 70 44C70 29.735 58.5119 18.1527 44.2825 18.0021Z" fill="#FFBB54"/>
<path d="M44.2825 18.0021C44.1883 18.001 44.0942 18 44 18C29.6409 18 18 29.6409 18 44C18 58.3591 29.6409 70 44 70C44.0942 70 44.1883 69.999 44.2825 69.9979C56.1996 69.8179 65.8149 58.2472 65.8149 44C65.8149 29.7528 56.1996 18.1821 44.2825 18.0021Z" fill="#FFD45A"/>
<path d="M54.3058 40.8821L44.1329 53.8821H54.5841C56.3764 51.5981 57.4447 48.7187 57.4447 45.5903V44.0209C57.4447 42.2946 56.0322 40.8821 54.3058 40.8821Z" fill="#B74147"/>
<path d="M33.6942 40.8821C31.9678 40.8821 30.5553 42.2946 30.5553 44.0209V45.5903C30.5553 48.7187 31.6236 51.5981 33.4159 53.8821L52.9865 52.1746C53.8266 50.2285 54.3058 47.9821 54.3058 45.5903V44.0212L33.6942 40.8821Z" fill="#FF3C1F"/>
<path d="M52.9865 52.1746L44.1329 59.034C48.3755 58.9932 52.1474 56.9874 54.5841 53.8821C54.1018 53.2679 53.5672 52.6956 52.9865 52.1746Z" fill="#FA4087"/>
<path d="M52.9865 52.1745C51.2413 56.2226 47.9351 58.9711 44.1329 59.0339C44.089 59.035 44.044 59.035 44 59.035C39.703 59.035 35.8778 57.0198 33.4159 53.882C35.8778 50.7453 39.703 48.7291 44 48.7291C47.4548 48.7291 50.6052 50.0328 52.9865 52.1745Z" fill="#FA71A3"/>
<path d="M51.167 40.8821L49.5976 45.5903H52.7364C53.5996 45.5903 54.3058 44.8841 54.3058 44.0209V40.8821H51.167Z" fill="#FFF7DF"/>
<path d="M51.167 40.8821V44.0209C51.167 44.8841 50.4608 45.5903 49.5976 45.5903H35.2636C34.4004 45.5903 33.6942 44.8841 33.6942 44.0209V40.8821H51.167Z" fill="white"/>
<path d="M44.7847 62.9589H43.2153C42.7818 62.9589 42.4306 62.6076 42.4306 62.1742C42.4306 61.7409 42.7818 61.3895 43.2153 61.3895H44.7847C45.2182 61.3895 45.5694 61.7409 45.5694 62.1742C45.5694 62.6076 45.2182 62.9589 44.7847 62.9589Z" fill="#FFBB54"/>
<path d="M52.7364 29.8961C51.8733 29.8961 51.167 30.6024 51.167 31.4655V36.1738C51.167 37.037 51.8733 37.7432 52.7364 37.7432C53.5996 37.7432 54.3059 37.037 54.3059 36.1738V31.4655C54.3059 30.6024 53.5996 29.8961 52.7364 29.8961Z" fill="#474867"/>
<path d="M35.2636 29.8971C34.4004 29.8971 33.6942 30.6033 33.6942 31.4665V36.1748C33.6942 37.0379 34.4004 37.7442 35.2636 37.7442C36.1267 37.7442 36.833 37.0379 36.833 36.1748V31.4665C36.833 30.6033 36.1267 29.8971 35.2636 29.8971Z" fill="#474867"/>
</svg>
