<svg width="88" height="88" viewBox="0 0 88 88" fill="none" xmlns="http://www.w3.org/2000/svg">
<circle opacity="0.08" cx="44" cy="44" r="44" fill="#E64D2E"/>
<g clip-path="url(#clip0_0_1)">
<path d="M41.9805 22C39.8965 22 38.2012 23.6953 38.2012 25.7793V27.123L40.7207 28.3828H41.9805H43.2402L45.7598 27.123V25.7793C45.7598 23.6953 44.0645 22 41.9805 22Z" fill="#FF6A4D"/>
<path d="M45.7598 27.123V25.7793C45.7598 23.6953 44.0645 22 41.9805 22V28.3828H43.2402L45.7598 27.123Z" fill="#E64D2E"/>
<path d="M23 59.9609C23.5838 62.8359 26.2515 65 29.2988 65C32.3461 65 35.0979 62.8359 35.6816 59.9609L32.9448 58.7012H24.7489L23 59.9609Z" fill="#474F54"/>
<path d="M29.2988 62.4805C27.2148 62.4805 25.5195 60.7852 25.5195 58.7012C25.5195 56.6172 27.2148 54.9219 29.2988 54.9219C31.3828 54.9219 33.1621 56.6172 33.1621 58.7012C33.1621 60.7852 31.3828 62.4805 29.2988 62.4805Z" fill="#F2F9FF"/>
<path d="M35.6816 37.2852H28.0391L25.5195 39.8047V47.3633L28.0391 48.623H35.6816L39.4609 47.3633V40.5605L38.2012 39.8047L35.6816 37.2852Z" fill="#DC780B"/>
<path d="M25.5195 34.7656V39.8047H38.2012L39.4609 39.1525L38.2012 38.5449V34.7656H25.5195Z" fill="#FABE2C"/>
<path d="M43.2402 59.9609H23V58.7012C23 53.8309 27.0321 49.8828 31.9023 49.8828L34.002 48.623H45.7598V57.8613L43.2402 59.9609Z" fill="#FF6A4D"/>
<path d="M23 47.3633H40.7207V49.8828H23V47.3633Z" fill="#32393F"/>
<path d="M49.5391 53.7376V58.4743L48.2793 59.9609H43.2402V49.8828H40.7207C39.335 49.8828 38.2012 48.749 38.2012 47.3633V41.0645H45.7598V44.8438C47.1455 44.8438 48.2793 45.9775 48.2793 47.3633V52.4023L49.5391 53.7376Z" fill="#575F64"/>
<path d="M49.5391 53.7376V58.4743L48.2793 59.9609H43.2402V49.8828H41.9805V41.0645H45.7598V44.8438C47.1455 44.8438 48.2793 45.9775 48.2793 47.3633V52.4023L49.5391 53.7376Z" fill="#474F54"/>
<path d="M45.7598 39.8047V38.5449C45.7598 36.4609 44.0645 34.7656 41.9805 34.7656C39.8965 34.7656 38.2012 36.4609 38.2012 38.5449V41.0645C38.2012 43.1517 39.8932 44.8438 41.9805 44.8438H52.1426C54.2298 44.8438 55.9219 43.1517 55.9219 41.0645V39.8047H45.7598Z" fill="#FF6A4D"/>
<path d="M55.9219 41.0645V39.8047H45.7598V38.5449C45.7598 36.4609 44.0645 34.7656 41.9805 34.7656V44.8438H52.1426C54.2298 44.8438 55.9219 43.1517 55.9219 41.0645Z" fill="#E64D2E"/>
<path d="M43.2402 28.3828H41.9805H40.7207L38.2012 29.6426V30.9023C38.2012 32.9863 39.8965 34.7656 41.9805 34.7656C44.0645 34.7656 45.7598 32.9863 45.7598 30.9023V29.6426L43.2402 28.3828Z" fill="#FFE1BA"/>
<path d="M45.7598 30.9023V29.6426L43.2402 28.3828H41.9805V34.7656C44.0645 34.7656 45.7598 32.9863 45.7598 30.9023Z" fill="#FFBFAB"/>
<path d="M41.9805 27.123H38.2012V29.6426H41.9805H48.2793V27.123H41.9805Z" fill="#474F54"/>
<path d="M41.9805 27.123H48.2793V29.6426H41.9805V27.123Z" fill="#32393F"/>
<path d="M59.3936 47.645C59.2546 46.6644 58.979 44.733 58.4291 40.886L53.4023 38.5449V48.623C53.4023 50.6104 51.6903 52.4023 49.5391 52.4023H48.2793V59.9609H50.7988H63.4805L66 58.7012V56.1816C66 52.1514 63.2197 48.6378 59.3936 47.645Z" fill="#E64D2E"/>
<path d="M60.9609 42.3242H57.1816C55.0977 42.3242 53.4023 40.6289 53.4023 38.5449C53.4023 36.4609 55.0977 34.7656 57.1816 34.7656H60.9609V42.3242Z" fill="#FF6A4D"/>
<path d="M60.0798 52.4407L59.7134 53.8405L57.5843 52.7947C55.1547 53.669 53.4023 55.9742 53.4023 58.7012C53.4023 62.1742 56.2282 65 59.7012 65C63.1742 65 66 62.1742 66 58.7012C66 55.3579 63.3736 52.6409 60.0798 52.4407Z" fill="#32393F"/>
<path d="M59.7012 54.9219C57.6172 54.9219 55.9219 56.6172 55.9219 58.7012C55.9219 60.7852 57.6172 62.4805 59.7012 62.4805C61.7852 62.4805 63.4805 60.7852 63.4805 58.7012C63.4805 56.6172 61.7852 54.9219 59.7012 54.9219Z" fill="#DFE7F4"/>
<path d="M60.9487 58.5228L60.0798 52.4406C59.9519 52.4329 59.8308 52.4023 59.7012 52.4023C58.9552 52.4023 58.249 52.5555 57.5844 52.7946L58.4537 58.8796L60.9487 58.5228Z" fill="#C7CFE1"/>
</g>
<defs>
<clipPath id="clip0_0_1">
<rect width="43" height="43" fill="white" transform="translate(23 22)"/>
</clipPath>
</defs>
</svg>
