<svg width="26" height="26" viewBox="0 0 26 26" fill="none" xmlns="http://www.w3.org/2000/svg">
<g clip-path="url(#clip0_1_161)">
<path d="M18.4248 13.0001L2.41129 0.57749C1.79811 1.05702 1.38506 1.80193 1.38506 2.69004L1.38506 23.3102C1.38506 24.1983 1.79811 24.9432 2.41129 25.4221L18.4248 13.0001Z" fill="#9DC6FB"/>
<path d="M23.2717 10.674L19.397 8.43674L16.0009 8.86142L14.8344 13L15.4268 16.9623L19.397 17.5627L23.2717 15.3261C25.0626 14.2922 25.0626 11.7079 23.2717 10.674Z" fill="#FFE07D"/>
<path d="M19.3967 8.43676L5.41403 0.363906C4.39231 -0.225614 3.22541 -0.0586948 2.41148 0.577442L14.8341 13.0001L19.3967 8.43676Z" fill="#DD5790"/>
<path d="M19.3967 17.5628L14.8341 13.0001L2.41148 25.4221C3.22541 26.059 4.39231 26.2258 5.41403 25.6363L19.3967 17.5628Z" fill="#95D6A4"/>
<path d="M4.41248 2.69C4.41248 2.50952 4.42924 2.33534 4.46164 2.16792L2.41145 0.577549C1.79831 1.05677 1.38506 1.80168 1.38506 2.69L1.38506 23.3102C1.38506 24.1979 1.79836 24.9429 2.41145 25.4221L4.46164 23.8318C4.42919 23.6644 4.41248 23.4901 4.41248 23.3102L4.41248 2.69Z" fill="#80B4FB"/>
<path d="M5.59219 0.466095L5.4143 0.363567C4.39258 -0.225497 3.22548 -0.0586286 2.41145 0.577509L4.41457 2.58063C4.44702 1.74045 4.85088 1.03683 5.43837 0.577509H5.43888C5.48859 0.538814 5.53988 0.501184 5.59219 0.466095Z" fill="#DA387D"/>
<path d="M5.43891 25.4221L5.43942 25.4211L5.43835 25.4221C4.85036 24.9628 4.447 24.2586 4.41455 23.419L2.41148 25.4221C3.22546 26.0588 4.39261 26.2256 5.41428 25.6361L5.59217 25.5335C5.53986 25.4985 5.48857 25.4608 5.43891 25.4221Z" fill="#78C2A4"/>
</g>
<defs>
<clipPath id="clip0_1_161">
<rect width="26" height="26" fill="white" transform="matrix(1 0 0 -1 0 26)"/>
</clipPath>
</defs>
</svg>
